<svg fill="#333" xmlns="http://www.w3.org/2000/svg" viewBox="0 0 100 100"><path d="M16.15 46.697c0 .712.577 1.29 1.29 1.29h27.975c.713 0 1.29-.578 1.29-1.29s-.577-1.29-1.29-1.29H17.44c-.713 0-1.29.578-1.29 1.29zm25.573-6.2c0-.713-.577-1.29-1.29-1.29H12.457c-.712 0-1.29.577-1.29 1.29s.578 1.29 1.29 1.29h27.976c.713 0 1.29-.58 1.29-1.29zm-32.458-1.29H6.55c-.713 0-1.29.577-1.29 1.29s.577 1.29 1.29 1.29h2.715c.712 0 1.29-.58 1.29-1.29s-.577-1.29-1.29-1.29zm26.54 14.983c.71 0 1.29-.58 1.29-1.29s-.58-1.29-1.29-1.29H20.39c-.71 0-1.29.577-1.29 1.29s.58 1.29 1.29 1.29h15.414zm-18.98-2.58h-2.717c-.712 0-1.29.577-1.29 1.29s.578 1.29 1.29 1.29h2.716c.712 0 1.29-.58 1.29-1.29s-.578-1.29-1.29-1.29z"/><path d="M90.548 53.477l-.36-.184c0-.004-.003-.007-.005-.01l-.227-.11-.246-.125v.005c-.364-.2-1.443-.812-1.882-1.303-.294-.33-.494-.735-.617-1.035l-.04-.12c-.06-.18-5.77-9.352-5.77-9.352-.03-.287-.16-.6-.37-.91-1.12-2.113-2.71-2.35-4-2.35h-6.2l-.01-.003h-.43l.4-2.286c0-1.302-1.06-2.36-2.36-2.36h-.442c-.013 0-.025-.01-.04-.01h-4.65l-.03-.008c-.014 0-.03.005-.042.01H21.47c-.71 0-1.29.577-1.29 1.29 0 .71.58 1.29 1.29 1.29h41.712c.02.002.037.014.058.014h4.142c.428.073.76.43.76.877 0 .002.013.004.018.006l-.4 1.7-5.822 25.205c-.03.465-.405.833-.875.844h-.04c-.014-.003-.027-.007-.04-.008v.008H37.08c-.026-.24.017-.464-.04-.702-.367-1.54-1.306-2.803-2.643-3.554-.803-.45-1.72-.69-2.648-.69-2.14 0-4.16 1.216-5.26 3.174-.31.55-.53 1.133-.67 1.73h-2.35v-.01c-.02 0-.03.006-.05.01h-.03c-.5-.01-.74-.41-.74-.905 0-.003.01-.005 0-.008l1.51-5.958c0-.29-.24-.53-.53-.53h-1.55c-.29 0-.53.23-.53.52l-1.74 6.73s-1.154 2.79 2.65 2.79h3.34l.022.11c.366 1.54 1.305 2.8 2.642 3.55.8.45 1.72.69 2.646.69 2.14 0 4.16-1.22 5.26-3.18.21-.38.38-.77.51-1.17h35.81c.008.032.01.063.02.094.368 1.54 1.307 2.806 2.644 3.557.8.45 1.72.69 2.647.69 2.14 0 4.16-1.215 5.26-3.173.21-.375.38-.766.51-1.166h4.744c2.234 0 2.516-1.42 2.92-3.2l1.52-6.564c.55-2.12-.92-3.186-2.404-3.927zM34.174 67.095c-.65 1.16-1.817 1.88-3.042 1.88-.502 0-.975-.123-1.406-.365-.713-.4-1.217-1.086-1.418-1.93-.21-.882-.068-1.825.4-2.657.65-1.16 1.816-1.88 3.04-1.88.503 0 .976.123 1.407.365.713.4 1.217 1.086 1.418 1.93.21.883.068 1.826-.4 2.657zm46.875 0c-.66 1.16-1.82 1.88-3.05 1.88-.5 0-.98-.123-1.41-.365-.72-.4-1.22-1.086-1.42-1.93-.21-.882-.07-1.825.4-2.657.65-1.16 1.81-1.88 3.04-1.88.5 0 .97.123 1.4.365.71.4 1.21 1.086 1.41 1.93.21.883.07 1.826-.4 2.657zm9.06-9.505l-1.33 5.27c-.01.002-.13 1.574-1.55 1.574h-3.21c-.03-.195-.06-.39-.11-.583-.37-1.54-1.31-2.8-2.65-3.55-.81-.45-1.72-.69-2.65-.69-2.14 0-4.16 1.22-5.26 3.18-.31.55-.53 1.12-.66 1.71h-7.17s-1.19.19-.97-.96h-.01l5.09-22.04c.01 0 .02 0 .02-.01 0-.5.403-.97.904-.97h6.807c.583-.01.884.34 1.03.6l.105.23.02.06.02.03 6.1 11.026s.69 1.45 1.964 2.06c.39.185 2.672 1.31 2.672 1.31 1.315.54.814 1.783.814 1.783z"/></svg>