<svg fill="white" xmlns="http://www.w3.org/2000/svg" xmlns:xlink="http://www.w3.org/1999/xlink" version="1.1" x="0px" y="0px" viewBox="0 0 100 100" enable-background="new 0 0 100 100" xml:space="preserve"><path d="M52.137,15.875c-14.101,0-26.929,8.856-31.922,22.038c-0.489,1.291,0.161,2.734,1.452,3.224  c1.29,0.487,2.733-0.161,3.224-1.452c4.262-11.251,15.211-18.81,27.246-18.81c16.06,0,29.125,13.065,29.125,29.125  S68.196,79.125,52.137,79.125c-14.108,0-25.902-10.085-28.562-23.424l0.626,0.506c1.074,0.87,2.648,0.701,3.516-0.371  c0.869-1.073,0.702-2.647-0.371-3.516l-5.271-4.264c-0.012-0.01-0.024-0.015-0.036-0.023c-0.102-0.079-0.209-0.148-0.322-0.212  c-0.039-0.021-0.077-0.044-0.117-0.063c-0.097-0.047-0.196-0.085-0.3-0.119c-0.06-0.021-0.119-0.041-0.181-0.057  c-0.084-0.021-0.169-0.034-0.256-0.047c-0.085-0.012-0.169-0.021-0.255-0.025c-0.032-0.001-0.063-0.01-0.096-0.01  c-0.04,0-0.078,0.01-0.117,0.012c-0.099,0.005-0.196,0.014-0.294,0.029c-0.063,0.011-0.123,0.023-0.184,0.038  c-0.102,0.024-0.2,0.056-0.299,0.093c-0.05,0.019-0.098,0.038-0.146,0.061c-0.104,0.047-0.203,0.102-0.301,0.163  c-0.036,0.022-0.071,0.046-0.105,0.071c-0.098,0.068-0.19,0.145-0.278,0.229c-0.029,0.027-0.058,0.056-0.085,0.085  c-0.048,0.05-0.101,0.092-0.145,0.146l-4.264,5.271c-0.869,1.073-0.702,2.647,0.371,3.516c0.463,0.375,1.019,0.557,1.57,0.557  c0.729,0,1.452-0.317,1.945-0.928l0.426-0.526c2.973,15.808,16.872,27.808,33.529,27.808c18.816,0,34.125-15.309,34.125-34.125  S70.953,15.875,52.137,15.875z"/></svg>