<svg xmlns="http://www.w3.org/2000/svg" xmlns:xlink="http://www.w3.org/1999/xlink" version="1.1" x="0px" y="0px" viewBox="0 0 100 125" enable-background="new 0 0 100 100" xml:space="preserve"><g><path d="M16.149,46.697c0,0.712,0.578,1.29,1.29,1.29h27.976c0.713,0,1.29-0.578,1.29-1.29s-0.577-1.29-1.29-1.29H17.439   C16.727,45.407,16.149,45.985,16.149,46.697z"/><path d="M41.723,40.496c0-0.712-0.577-1.29-1.29-1.29H12.457c-0.712,0-1.29,0.578-1.29,1.29s0.578,1.29,1.29,1.29h27.976   C41.146,41.786,41.723,41.208,41.723,40.496z"/><path d="M9.265,39.206H6.549c-0.712,0-1.29,0.578-1.29,1.29s0.578,1.29,1.29,1.29h2.716c0.712,0,1.29-0.578,1.29-1.29   S9.978,39.206,9.265,39.206z"/><path d="M35.804,54.189c0.712,0,1.289-0.578,1.289-1.29s-0.577-1.29-1.289-1.29H20.391c-0.712,0-1.29,0.578-1.29,1.29   s0.578,1.29,1.29,1.29H35.804z"/><path d="M16.824,51.609h-2.716c-0.712,0-1.29,0.578-1.29,1.29s0.578,1.29,1.29,1.29h2.716c0.712,0,1.29-0.578,1.29-1.29   S17.536,51.609,16.824,51.609z"/><path d="M90.548,53.477l-0.359-0.184c-0.002-0.004-0.004-0.007-0.006-0.009l-0.227-0.11l-0.246-0.126c-0.001,0,0,0.003,0.001,0.005   c-0.365-0.2-1.444-0.812-1.883-1.303c-0.294-0.329-0.494-0.735-0.617-1.035l-0.049-0.121c-0.067-0.179-5.772-9.351-5.772-9.351   c-0.029-0.287-0.164-0.599-0.369-0.91c-1.127-2.113-2.71-2.35-4.009-2.35h-6.2c-0.002,0-0.008-0.003-0.009-0.003h-0.436   l0.401-2.286c0-1.302-1.06-2.361-2.361-2.361h-0.448c-0.013,0-0.025-0.008-0.038-0.008h-4.652l-0.029-0.009   c-0.015,0-0.029,0.005-0.043,0.009H21.471c-0.712,0-1.29,0.578-1.29,1.29c0,0.712,0.578,1.29,1.29,1.29h41.711   c0.021,0.003,0.037,0.015,0.058,0.015h4.142c0.428,0.073,0.76,0.429,0.76,0.877c0,0.002,0.013,0.004,0.018,0.006l-0.401,1.701   l-5.821,25.204c-0.031,0.465-0.405,0.833-0.875,0.844h-0.041c-0.013-0.003-0.026-0.007-0.04-0.008v0.008H37.081   c-0.027-0.241,0.016-0.464-0.041-0.702c-0.367-1.541-1.306-2.803-2.643-3.554c-0.803-0.451-1.719-0.69-2.648-0.69   c-2.14,0-4.153,1.216-5.253,3.174c-0.309,0.55-0.531,1.133-0.666,1.729h-2.357v-0.009c-0.016,0.001-0.03,0.006-0.045,0.009h-0.031   c-0.493-0.009-0.735-0.408-0.735-0.904c0-0.003,0.008-0.005,0-0.008l1.512-5.958c0-0.29-0.235-0.525-0.525-0.525h-1.555   c-0.29,0-0.525,0.235-0.525,0.525l-1.735,6.723c0,0-1.154,2.795,2.649,2.795h3.334c0.008,0.036,0.014,0.072,0.023,0.108   c0.367,1.54,1.306,2.803,2.643,3.554c0.803,0.451,1.719,0.69,2.648,0.69c2.14,0,4.153-1.216,5.253-3.174   c0.211-0.375,0.38-0.765,0.51-1.164h25.65h1.555h8.598c0.007,0.031,0.012,0.062,0.02,0.093c0.367,1.54,1.306,2.803,2.643,3.554   c0.803,0.451,1.719,0.69,2.648,0.69c2.14,0,4.153-1.216,5.253-3.174c0.211-0.376,0.381-0.767,0.511-1.167l4.744,0.001   c2.234,0,2.516-1.422,2.922-3.203l1.516-6.563C93.5,55.281,92.029,54.218,90.548,53.477z M34.174,67.095   c-0.651,1.159-1.817,1.88-3.042,1.88c-0.502,0-0.975-0.123-1.406-0.365c-0.713-0.401-1.217-1.086-1.418-1.931   c-0.21-0.881-0.068-1.824,0.399-2.656c0.651-1.159,1.817-1.88,3.042-1.88c0.502,0,0.975,0.123,1.406,0.365   c0.713,0.401,1.217,1.086,1.418,1.931C34.782,65.321,34.641,66.264,34.174,67.095z M81.049,67.095   c-0.651,1.159-1.817,1.88-3.042,1.88c-0.502,0-0.975-0.123-1.406-0.365c-0.713-0.401-1.217-1.086-1.418-1.931   c-0.21-0.881-0.068-1.824,0.399-2.656c0.651-1.159,1.817-1.88,3.042-1.88c0.502,0,0.975,0.123,1.406,0.365   c0.713,0.401,1.217,1.086,1.418,1.931C81.658,65.321,81.516,66.264,81.049,67.095z M90.11,57.59   c-0.193,0.781-1.329,5.269-1.329,5.269c-0.01,0.003-0.125,1.575-1.547,1.575h-3.21c-0.027-0.195-0.062-0.39-0.108-0.583   c-0.367-1.541-1.306-2.803-2.643-3.554c-0.803-0.451-1.719-0.69-2.648-0.69c-2.14,0-4.153,1.216-5.253,3.174   c-0.306,0.545-0.526,1.121-0.661,1.71h-7.172c0,0-1.184,0.182-0.968-0.963c0-0.001-0.007-0.002-0.007-0.003l5.092-22.042   c0.007-0.002,0.02-0.005,0.02-0.007c0-0.501,0.405-0.972,0.906-0.972c0.011,0,0.779,0,3.334,0.001v0.001h3.471   c0.582-0.006,0.883,0.337,1.03,0.597l0.104,0.231c0.012,0.034,0.018,0.055,0.019,0.056l0.017,0.023l6.101,11.024   c0,0,0.688,1.453,1.964,2.059c0.389,0.185,2.672,1.309,2.672,1.309C90.611,56.347,90.11,57.59,90.11,57.59z"/></g></svg>